<svg height="512" viewBox="0 0 54 58" width="512" xmlns="http://www.w3.org/2000/svg"><g id="Page-1" fill="none" fill-rule="evenodd"><g id="030---Love-Poem" fill-rule="nonzero"><path id="Shape" d="m54 11c.0029122.956581-.0605737 1.9122107-.19 2.86-.1172001.8333983-.3011244 1.6560413-.55 2.46-1.2 3.9-3.53 5.76-4.26 8.68-.17.69-.38 1.45-.61 2.22-.25.78-.52 1.59-.84 2.38-1.18 2.97-2.94 5.75-5.55 6.4h-5s-3.2-3.2-3.87-9.6c-.0903514-.7967592-.1337597-1.5981431-.13-2.4 0-.13 0-.26.01-.39.0059011-2.4374474.5667447-4.8415513 1.64-7.03v-.01c.3963899-.8051797.8614444-1.5746944 1.39-2.3 1.3503094-1.7753096 2.9346904-3.3596906 4.71-4.71.72-.59 1.46-1.15 2.2-1.7 3.26-2.43 6.45-4.67 8.05-7.86 1.8741085 3.37040625 2.9034872 7.14479494 3 11z" fill="#67b9cc"/><path id="Shape" d="m39 37c-.4881196-.0006315-.9044606-.3535703-.985-.835-.085-.51-1.951-12.622 9.249-24.841.2415115-.2633047.6051488-.3777635.9539332-.3002607.3487843.0775027.6297271.3351925.737.676.1072728.3408075.0245783.712956-.2169332.9762607-10.549 11.507-8.77 23.044-8.751 23.159.0436615.2616405-.0184186.5299086-.1725792.745771-.1541607.2158624-.3877697.361631-.6494208.405229-.0544722.0095796-.1096925.0142649-.165.014z" fill="#3b97d3"/><path id="Shape" d="m42.24 13.97c-.5356491.1321055-1.0770912-.1945496-1.21-.73-.2767533-1.205775-.371136-2.4462334-.28-3.68.72-.59 1.46-1.15 2.2-1.7-.3132504 1.61897977-.3064559 3.2836313.02 4.9.1321055.5356491-.1945496 1.0770912-.73 1.21z" fill="#2fa8cc"/><path id="Shape" d="m38.8 19.6c-.1901779.2502148-.4857214.3979866-.8.4-.2160365-.0020264-.425955-.0719992-.6-.2-1.1687175-.8295414-2.1135638-1.9358705-2.75-3.22 0 0-.01 0 0-.01.3963899-.8051797.8614444-1.5746944 1.39-2.3.2649293 1.610851 1.1936644 3.0366045 2.56 3.93.2121732.1591299.3524422.3960277.3899495.6585786.0375073.262551-.0308196.5292482-.1899495.7414214z" fill="#2fa8cc"/><path id="Shape" d="m36.9 27.43c-.1654027.3472838-.5153406.5689111-.9.57-.1492607.0014682-.2967038-.0328209-.43-.1-.865306-.4100672-1.6834493-.9130242-2.44-1.5-.0903514-.7967592-.1337597-1.5981431-.13-2.4 0-.13 0-.26.01-.39.9780672 1.0322385 2.1372674 1.8762176 3.42 2.49.2395347.1131267.4239382.3172735.512202.5670414s.0730702.5244491-.042202.7629586z" fill="#2fa8cc"/><path id="Shape" d="m53.81 13.86c-.1172001.8333983-.3011244 1.6560413-.55 2.46-1.0334172.4322993-2.1399338.6631064-3.26.68-.5522847 0-1-.4477153-1-1s.4477153-1 1-1c1.3434-.0668985 2.6506343-.4580395 3.81-1.14z" fill="#2fa8cc"/><path id="Shape" d="m48.39 27.22c-.25.78-.52 1.59-.84 2.38-1.1622146.2797623-2.3546715.4141236-3.55.4-.5522847 0-1-.4477153-1-1s.4477153-1 1-1c1.5016242.0477153 2.9967207-.2179282 4.39-.78z" fill="#2fa8cc"/><path id="Shape" d="m4 0c-2.209139 0-4 1.790861-4 4v41c.0065896 2.2064037 1.79359627 3.9934104 4 4h24v-49z" fill="#f0c419"/><path id="Shape" d="m28 8c2.209139 0 4-1.790861 4-4s-1.790861-4-4-4h-24c2.209139 0 4 1.790861 4 4s-1.790861 4-4 4z" fill="#f3d55b"/><path id="Shape" d="m31.87 44.01c-.4493646-1.7706125-2.043255-3.0103051-3.87-3.01l-24-.0000001c2.209139.0000001 4 1.7908611 4 4.0000001s-1.790861 4-4 4h24z" fill="#f3d55b"/><path id="Shape" d="m9 13.62c.47913018-.9522976 1.4350553-1.5717371 2.5-1.62.7089188.032097 1.3746673.3497454 1.845615.8805977.4709478.5308524.7069969 1.2297103.654385 1.9374023 0 2.114-2.035 3.513-5 6.182-2.965-2.669-5-4.068-5-6.182-.05261194-.707692.18343719-1.4065499.65438497-1.9374023.47094778-.5308523 1.13669628-.8485007 1.84561503-.8805977 1.06494467.0482629 2.02086982.6677024 2.5 1.62z" fill="#ff5364"/><g fill="#3d324c"><path id="Shape" d="m24 14h-6c-.5522847 0-1-.4477153-1-1s.4477153-1 1-1h6c.5522847 0 1 .4477153 1 1s-.4477153 1-1 1z"/><path id="Shape" d="m24 18h-7c-.5522847 0-1-.4477153-1-1s.4477153-1 1-1h7c.5522847 0 1 .4477153 1 1s-.4477153 1-1 1z"/><path id="Shape" d="m24 22h-9c-.5522847 0-1-.4477153-1-1s.4477153-1 1-1h9c.5522847 0 1 .4477153 1 1s-.4477153 1-1 1z"/><path id="Shape" d="m24 26h-20c-.55228475 0-1-.4477153-1-1s.44771525-1 1-1h20c.5522847 0 1 .4477153 1 1s-.4477153 1-1 1z"/><path id="Shape" d="m24 30h-20c-.55228475 0-1-.4477153-1-1s.44771525-1 1-1h20c.5522847 0 1 .4477153 1 1s-.4477153 1-1 1z"/><path id="Shape" d="m11 34h-7c-.55228475 0-1-.4477153-1-1s.44771525-1 1-1h7c.5522847 0 1 .4477153 1 1s-.4477153 1-1 1z"/><path id="Shape" d="m24 34h-9c-.5522847 0-1-.4477153-1-1s.4477153-1 1-1h9c.5522847 0 1 .4477153 1 1s-.4477153 1-1 1z"/><path id="Shape" d="m24 38h-20c-.55228475 0-1-.4477153-1-1s.44771525-1 1-1h20c.5522847 0 1 .4477153 1 1s-.4477153 1-1 1z"/></g><path id="Rectangle-path" d="m35 39h8v6h-8z" fill="#35495e"/><rect id="Rectangle-path" fill="#547580" height="4" rx="2" width="14" x="32" y="36"/><rect id="Rectangle-path" fill="#3f5c6c" height="14" rx="3" width="22" x="28" y="44"/><path id="Shape" d="m35 50h-3c-.5522847 0-1-.4477153-1-1s.4477153-1 1-1h3c.5522847 0 1 .4477153 1 1s-.4477153 1-1 1z" fill="#ecf0f1"/><path id="Shape" d="m46 50h-7c-.5522847 0-1-.4477153-1-1s.4477153-1 1-1h7c.5522847 0 1 .4477153 1 1s-.4477153 1-1 1z" fill="#ecf0f1"/><path id="Shape" d="m46 54h-14c-.5522847 0-1-.4477153-1-1s.4477153-1 1-1h14c.5522847 0 1 .4477153 1 1s-.4477153 1-1 1z" fill="#ecf0f1"/></g></g></svg>